<?xml version="1.0" encoding="UTF-8" standalone="no"?>
<!-- Created with Inkscape (http://www.inkscape.org/) -->

<svg
   xmlns:dc="http://purl.org/dc/elements/1.1/"
   xmlns:cc="http://creativecommons.org/ns#"
   xmlns:rdf="http://www.w3.org/1999/02/22-rdf-syntax-ns#"
   xmlns:svg="http://www.w3.org/2000/svg"
   xmlns="http://www.w3.org/2000/svg"
   xmlns:xlink="http://www.w3.org/1999/xlink"
   xmlns:sodipodi="http://sodipodi.sourceforge.net/DTD/sodipodi-0.dtd"
   xmlns:inkscape="http://www.inkscape.org/namespaces/inkscape"
   width="64px"
   height="64px"
   id="svg2985"
   version="1.1"
   inkscape:version="0.48.2 r9819"
   sodipodi:docname="New document 2">
  <defs
     id="defs2987">
    <linearGradient
       inkscape:collect="always"
       xlink:href="#linearGradient2780"
       id="linearGradient4983"
       gradientUnits="userSpaceOnUse"
       gradientTransform="matrix(1.632005,0,0,2.436073,-0.0513035,2.009678)"
       x1="35.995708"
       y1="1.624638"
       x2="35.995708"
       y2="11.710631" />
    <linearGradient
       id="linearGradient2780">
      <stop
         id="stop2782"
         offset="0.00000000"
         style="stop-color:#ffffff;stop-opacity:1.0000000;" />
      <stop
         id="stop2784"
         offset="1.0000000"
         style="stop-color:#ffffff;stop-opacity:0.00000000;" />
    </linearGradient>
    <linearGradient
       inkscape:collect="always"
       xlink:href="#linearGradient2780"
       id="linearGradient4980"
       gradientUnits="userSpaceOnUse"
       gradientTransform="matrix(1.63752,0,0,2.47415,-0.0513035,-0.012826)"
       x1="38.362892"
       y1="11.170151"
       x2="39.723621"
       y2="6.0918369" />
    <linearGradient
       id="linearGradient3753">
      <stop
         id="stop3755"
         offset="0.00000000"
         style="stop-color:#ffffff;stop-opacity:1.0000000;" />
      <stop
         id="stop3757"
         offset="1.0000000"
         style="stop-color:#ffffff;stop-opacity:0.00000000;" />
    </linearGradient>
    <radialGradient
       inkscape:collect="always"
       xlink:href="#linearGradient2834"
       id="radialGradient4977"
       gradientUnits="userSpaceOnUse"
       gradientTransform="matrix(2.366562,0,0,1.726511,-0.404355,-0.012826)"
       cx="21.595108"
       cy="8.9813547"
       fx="21.595108"
       fy="8.9813547"
       r="6.0678878" />
    <linearGradient
       id="linearGradient2834">
      <stop
         id="stop2836"
         offset="0"
         style="stop-color:#e59a00;stop-opacity:1;" />
      <stop
         id="stop2838"
         offset="1"
         style="stop-color:#faff7d;stop-opacity:0.18367347;" />
    </linearGradient>
    <radialGradient
       inkscape:collect="always"
       xlink:href="#linearGradient2834"
       id="radialGradient4974"
       gradientUnits="userSpaceOnUse"
       gradientTransform="matrix(-2.366562,0,0,1.726511,129.1226,-0.112925)"
       cx="21.595108"
       cy="8.9813547"
       fx="21.595108"
       fy="8.9813547"
       r="6.0678878" />
    <linearGradient
       id="linearGradient3764">
      <stop
         id="stop3766"
         offset="0"
         style="stop-color:#e59a00;stop-opacity:1;" />
      <stop
         id="stop3768"
         offset="1"
         style="stop-color:#faff7d;stop-opacity:0.18367347;" />
    </linearGradient>
    <linearGradient
       inkscape:collect="always"
       xlink:href="#linearGradient2780"
       id="linearGradient4971"
       gradientUnits="userSpaceOnUse"
       gradientTransform="matrix(1.632005,0,0,2.482509,-0.0513035,-0.012826)"
       x1="38.781849"
       y1="9.5745525"
       x2="38.781849"
       y2="7.5863166" />
    <linearGradient
       id="linearGradient3771">
      <stop
         id="stop3773"
         offset="0.00000000"
         style="stop-color:#ffffff;stop-opacity:1.0000000;" />
      <stop
         id="stop3775"
         offset="1.0000000"
         style="stop-color:#ffffff;stop-opacity:0.00000000;" />
    </linearGradient>
    <linearGradient
       inkscape:collect="always"
       xlink:href="#linearGradient2780"
       id="linearGradient4968"
       gradientUnits="userSpaceOnUse"
       gradientTransform="matrix(2.210222,0,0,1.964283,-1.515862,-2.171324)"
       x1="33.184048"
       y1="24.384579"
       x2="33.184048"
       y2="-13.170087" />
    <linearGradient
       id="linearGradient3778">
      <stop
         id="stop3780"
         offset="0.00000000"
         style="stop-color:#ffffff;stop-opacity:1.0000000;" />
      <stop
         id="stop3782"
         offset="1.0000000"
         style="stop-color:#ffffff;stop-opacity:0.00000000;" />
    </linearGradient>
    <linearGradient
       inkscape:collect="always"
       xlink:href="#linearGradient2780"
       id="linearGradient4965"
       gradientUnits="userSpaceOnUse"
       gradientTransform="matrix(2.161083,0,0,1.804543,-0.0513035,2.267068)"
       x1="33.184048"
       y1="24.384579"
       x2="33.184048"
       y2="-13.170087" />
    <linearGradient
       id="linearGradient3785">
      <stop
         id="stop3787"
         offset="0.00000000"
         style="stop-color:#ffffff;stop-opacity:1.0000000;" />
      <stop
         id="stop3789"
         offset="1.0000000"
         style="stop-color:#ffffff;stop-opacity:0.00000000;" />
    </linearGradient>
    <radialGradient
       inkscape:collect="always"
       xlink:href="#linearGradient2834"
       id="radialGradient4958"
       gradientUnits="userSpaceOnUse"
       gradientTransform="matrix(3.085042,0,0,2.052895,-15.9848,-3.14928)"
       cx="21.595108"
       cy="8.9813547"
       fx="21.595108"
       fy="8.9813547"
       r="6.0678878" />
    <linearGradient
       id="linearGradient3792">
      <stop
         id="stop3794"
         offset="0"
         style="stop-color:#e59a00;stop-opacity:1;" />
      <stop
         id="stop3796"
         offset="1"
         style="stop-color:#faff7d;stop-opacity:0.18367347;" />
    </linearGradient>
    <radialGradient
       inkscape:collect="always"
       xlink:href="#linearGradient2834"
       id="radialGradient4955"
       gradientUnits="userSpaceOnUse"
       gradientTransform="matrix(-2.846279,0,0,2.087943,139.5254,-3.586178)"
       cx="21.595108"
       cy="8.9813547"
       fx="21.595108"
       fy="8.9813547"
       r="6.0678878" />
    <linearGradient
       id="linearGradient3799">
      <stop
         id="stop3801"
         offset="0"
         style="stop-color:#e59a00;stop-opacity:1;" />
      <stop
         id="stop3803"
         offset="1"
         style="stop-color:#faff7d;stop-opacity:0.18367347;" />
    </linearGradient>
    <radialGradient
       inkscape:collect="always"
       xlink:href="#linearGradient3057"
       id="radialGradient4952"
       gradientUnits="userSpaceOnUse"
       gradientTransform="matrix(7.531304,0,0,0.53795,3.974348,-0.012826)"
       cx="8.0178375"
       cy="231.98276"
       fx="8.0178375"
       fy="231.98276"
       r="7.483315" />
    <linearGradient
       id="linearGradient3057">
      <stop
         id="stop3059"
         offset="0.00000000"
         style="stop-color:#282828;stop-opacity:1.0000000;" />
      <stop
         id="stop3061"
         offset="1.0000000"
         style="stop-color:#282828;stop-opacity:0.00000000;" />
    </linearGradient>
    <radialGradient
       inkscape:collect="always"
       xlink:href="#linearGradient3057"
       id="radialGradient4949"
       gradientUnits="userSpaceOnUse"
       gradientTransform="matrix(7.531304,0,0,0.672437,3.974348,-34.23087)"
       cx="8.0178375"
       cy="231.98276"
       fx="8.0178375"
       fy="231.98276"
       r="7.483315" />
    <linearGradient
       id="linearGradient3810">
      <stop
         id="stop3812"
         offset="0.00000000"
         style="stop-color:#282828;stop-opacity:1.0000000;" />
      <stop
         id="stop3814"
         offset="1.0000000"
         style="stop-color:#282828;stop-opacity:0.00000000;" />
    </linearGradient>
    <radialGradient
       inkscape:collect="always"
       xlink:href="#linearGradient3057"
       id="radialGradient4946"
       gradientUnits="userSpaceOnUse"
       gradientTransform="matrix(7.531304,0,0,0.53795,3.974348,-2.025652)"
       cx="8.0178375"
       cy="231.98276"
       fx="8.0178375"
       fy="231.98276"
       r="7.483315" />
    <linearGradient
       id="linearGradient3817">
      <stop
         id="stop3819"
         offset="0.00000000"
         style="stop-color:#282828;stop-opacity:1.0000000;" />
      <stop
         id="stop3821"
         offset="1.0000000"
         style="stop-color:#282828;stop-opacity:0.00000000;" />
    </linearGradient>
    <linearGradient
       inkscape:collect="always"
       xlink:href="#linearGradient2701"
       id="linearGradient3151"
       gradientUnits="userSpaceOnUse"
       gradientTransform="matrix(2.151801,0,0,1.77085,-0.0513035,4.351838)"
       spreadMethod="reflect"
       x1="29.613848"
       y1="52.608921"
       x2="44.723549"
       y2="52.608921" />
    <linearGradient
       id="linearGradient2701">
      <stop
         id="stop2703"
         offset="0"
         style="stop-color:#db9300;stop-opacity:1;" />
      <stop
         id="stop2770"
         offset="0.75"
         style="stop-color:#fac700;stop-opacity:1;" />
      <stop
         id="stop2705"
         offset="1"
         style="stop-color:#fff363;stop-opacity:1;" />
    </linearGradient>
    <linearGradient
       inkscape:collect="always"
       xlink:href="#linearGradient2713"
       id="linearGradient3148"
       gradientUnits="userSpaceOnUse"
       gradientTransform="matrix(2.21879,0,0,1.825981,-0.0513035,-1.012826)"
       spreadMethod="reflect"
       x1="29.093641"
       y1="46.357063"
       x2="29.093641"
       y2="47.295517" />
    <linearGradient
       id="linearGradient2713">
      <stop
         id="stop2715"
         offset="0.00000000"
         style="stop-color:#000000;stop-opacity:1.0000000;" />
      <stop
         id="stop2717"
         offset="1.0000000"
         style="stop-color:#ffffff;stop-opacity:1.0000000;" />
    </linearGradient>
    <linearGradient
       inkscape:collect="always"
       xlink:href="#linearGradient2713"
       id="linearGradient3145"
       gradientUnits="userSpaceOnUse"
       gradientTransform="matrix(2.21879,0,0,1.825981,-0.0513035,-1.012826)"
       spreadMethod="reflect"
       x1="24.261463"
       y1="44.011002"
       x2="24.605862"
       y2="45.887836" />
    <linearGradient
       id="linearGradient3833">
      <stop
         id="stop3835"
         offset="0.00000000"
         style="stop-color:#000000;stop-opacity:1.0000000;" />
      <stop
         id="stop3837"
         offset="1.0000000"
         style="stop-color:#ffffff;stop-opacity:1.0000000;" />
    </linearGradient>
    <linearGradient
       inkscape:collect="always"
       xlink:href="#linearGradient2713"
       id="linearGradient3142"
       gradientUnits="userSpaceOnUse"
       gradientTransform="matrix(2.21879,0,0,1.825981,-0.0513035,-1.012826)"
       spreadMethod="reflect"
       x1="17.68186"
       y1="60.433849"
       x2="17.425413"
       y2="62.779984" />
    <linearGradient
       id="linearGradient3840">
      <stop
         id="stop3842"
         offset="0.00000000"
         style="stop-color:#000000;stop-opacity:1.0000000;" />
      <stop
         id="stop3844"
         offset="1.0000000"
         style="stop-color:#ffffff;stop-opacity:1.0000000;" />
    </linearGradient>
    <radialGradient
       inkscape:collect="always"
       xlink:href="#linearGradient2780"
       id="radialGradient3114"
       gradientUnits="userSpaceOnUse"
       gradientTransform="matrix(0.433337,0,0,1.434961,6.40989,-0.113137)"
       cx="20.36058"
       cy="22.546398"
       fx="20.36058"
       fy="22.546396"
       r="15.156592" />
    <linearGradient
       id="linearGradient3847">
      <stop
         id="stop3849"
         offset="0.00000000"
         style="stop-color:#ffffff;stop-opacity:1.0000000;" />
      <stop
         id="stop3851"
         offset="1.0000000"
         style="stop-color:#ffffff;stop-opacity:0.00000000;" />
    </linearGradient>
    <radialGradient
       inkscape:collect="always"
       xlink:href="#linearGradient2780"
       id="radialGradient3116"
       gradientUnits="userSpaceOnUse"
       gradientTransform="matrix(0.500069,0,0,1.675192,5.00297,-5.108149)"
       cx="20.36058"
       cy="22.546398"
       fx="20.36058"
       fy="22.546396"
       r="15.156592" />
    <linearGradient
       id="linearGradient3854">
      <stop
         id="stop3856"
         offset="0.00000000"
         style="stop-color:#ffffff;stop-opacity:1.0000000;" />
      <stop
         id="stop3858"
         offset="1.0000000"
         style="stop-color:#ffffff;stop-opacity:0.00000000;" />
    </linearGradient>
    <radialGradient
       inkscape:collect="always"
       xlink:href="#linearGradient2780"
       id="radialGradient3118"
       gradientUnits="userSpaceOnUse"
       gradientTransform="matrix(0.621397,0,0,1.882058,2.388831,-9.409409)"
       cx="20.36058"
       cy="22.546398"
       fx="20.36058"
       fy="22.546396"
       r="15.156592" />
    <linearGradient
       id="linearGradient3861">
      <stop
         id="stop3863"
         offset="0.00000000"
         style="stop-color:#ffffff;stop-opacity:1.0000000;" />
      <stop
         id="stop3865"
         offset="1.0000000"
         style="stop-color:#ffffff;stop-opacity:0.00000000;" />
    </linearGradient>
    <radialGradient
       inkscape:collect="always"
       xlink:href="#linearGradient2780"
       id="radialGradient3120"
       gradientUnits="userSpaceOnUse"
       gradientTransform="matrix(0.433337,0,0,1.434961,6.40989,-0.113137)"
       cx="20.36058"
       cy="22.546398"
       fx="20.36058"
       fy="22.546396"
       r="15.156592" />
    <linearGradient
       id="linearGradient3868">
      <stop
         id="stop3870"
         offset="0.00000000"
         style="stop-color:#ffffff;stop-opacity:1.0000000;" />
      <stop
         id="stop3872"
         offset="1.0000000"
         style="stop-color:#ffffff;stop-opacity:0.00000000;" />
    </linearGradient>
    <radialGradient
       inkscape:collect="always"
       xlink:href="#linearGradient2780"
       id="radialGradient3122"
       gradientUnits="userSpaceOnUse"
       gradientTransform="matrix(0.500069,0,0,1.675192,5.00297,-5.108149)"
       cx="20.36058"
       cy="22.546398"
       fx="20.36058"
       fy="22.546396"
       r="15.156592" />
    <linearGradient
       id="linearGradient3875">
      <stop
         id="stop3877"
         offset="0.00000000"
         style="stop-color:#ffffff;stop-opacity:1.0000000;" />
      <stop
         id="stop3879"
         offset="1.0000000"
         style="stop-color:#ffffff;stop-opacity:0.00000000;" />
    </linearGradient>
    <radialGradient
       inkscape:collect="always"
       xlink:href="#linearGradient2780"
       id="radialGradient3124"
       gradientUnits="userSpaceOnUse"
       gradientTransform="matrix(0.621397,0,0,1.882058,2.388831,-9.409409)"
       cx="20.36058"
       cy="22.546398"
       fx="20.36058"
       fy="22.546396"
       r="15.156592" />
    <linearGradient
       id="linearGradient3882">
      <stop
         id="stop3884"
         offset="0.00000000"
         style="stop-color:#ffffff;stop-opacity:1.0000000;" />
      <stop
         id="stop3886"
         offset="1.0000000"
         style="stop-color:#ffffff;stop-opacity:0.00000000;" />
    </linearGradient>
    <linearGradient
       inkscape:collect="always"
       xlink:href="#linearGradient2780"
       id="linearGradient3130"
       gradientUnits="userSpaceOnUse"
       gradientTransform="matrix(2.136116,0,0,1.825981,2.348697,-1.012826)"
       spreadMethod="pad"
       x1="26.974447"
       y1="68.680031"
       x2="26.974447"
       y2="44.981197" />
    <linearGradient
       id="linearGradient3889">
      <stop
         id="stop3891"
         offset="0.00000000"
         style="stop-color:#ffffff;stop-opacity:1.0000000;" />
      <stop
         id="stop3893"
         offset="1.0000000"
         style="stop-color:#ffffff;stop-opacity:0.00000000;" />
    </linearGradient>
  </defs>
  <sodipodi:namedview
     id="base"
     pagecolor="#ffffff"
     bordercolor="#666666"
     borderopacity="1.0"
     inkscape:pageopacity="0.0"
     inkscape:pageshadow="2"
     inkscape:zoom="4.390625"
     inkscape:cx="72.654804"
     inkscape:cy="32"
     inkscape:current-layer="layer1"
     showgrid="true"
     inkscape:document-units="px"
     inkscape:grid-bbox="true"
     inkscape:snap-global="false"
     inkscape:window-width="806"
     inkscape:window-height="596"
     inkscape:window-x="373"
     inkscape:window-y="136"
     inkscape:window-maximized="0" />
  <metadata
     id="metadata2990">
    <rdf:RDF>
      <cc:Work
         rdf:about="">
        <dc:format>image/svg+xml</dc:format>
        <dc:type
           rdf:resource="http://purl.org/dc/dcmitype/StillImage" />
        <dc:title></dc:title>
      </cc:Work>
    </rdf:RDF>
  </metadata>
  <g
     id="layer1"
     inkscape:label="Layer 1"
     inkscape:groupmode="layer">
    <g
       transform="matrix(0.50320285,-6.2222074e-4,6.6689531e-4,0.46949384,0.25197925,2.1678937)"
       id="g5908">
      <g
         id="g5889">
        <path
           inkscape:connector-curvature="0"
           style="fill:#282828;fill-opacity:1;fill-rule:evenodd;stroke:none"
           id="rect2723"
           d="M 64.359126,2 C 44.287226,2 28.128259,18.158966 28.128259,38.230867 l 0,40.256518 10.06413,0 0,-40.256518 c 0,-14.496373 11.670365,-26.166737 26.166737,-26.166737 14.496372,0 26.166737,11.670364 26.166737,26.166737 l 0,40.256518 10.064127,0 0,-40.256518 C 100.58999,18.158966 84.431026,2 64.359126,2 z" />
        <path
           inkscape:connector-curvature="0"
           style="opacity:0.65;fill:url(#linearGradient4983);fill-opacity:1;fill-rule:evenodd;stroke:none"
           id="path3082"
           d="m 64.359126,4.6292539 c -18.956795,0 -34.218041,16.3065591 -34.218041,34.9087681 l 0,37.528346 c 0,14.089202 8.77639,26.049682 21.260474,31.047302 C 42.456647,104.04079 36.179563,95.313819 36.179563,84.967072 l 0,-47.404226 c 0,-14.225219 11.670365,-26.621104 26.166737,-26.621104 l 4.025652,0 c 14.496372,0 26.166737,12.395885 26.166737,26.621104 l 0,47.404226 c 0,10.346747 -6.277085,19.073718 -15.221996,23.146598 12.484083,-4.99762 21.260473,-16.9581 21.260473,-31.047302 l 0,-37.528346 c 0,-18.602209 -15.261246,-34.9087681 -34.21804,-34.9087681 z" />
        <path
           inkscape:connector-curvature="0"
           style="opacity:0.5;fill:url(#linearGradient4980);fill-opacity:1;fill-rule:evenodd;stroke:none"
           id="path2931"
           d="m 64.359126,2.8539414 c -19.510026,0 -35.216654,15.6010326 -35.216654,34.9798936 l 0,39.095174 c 0,14.677436 9.032518,27.137281 21.880935,32.343541 C 41.817448,105.02963 35.357175,95.938304 35.357175,85.159575 l 0,-49.38338 c 0,-14.819129 12.010953,-29.0822725 26.930383,-29.0822725 l 4.143136,0 c 14.91943,0 26.930383,14.2631435 26.930383,29.0822725 l 0,49.38338 c 0,10.778729 -6.460273,19.870055 -15.666233,24.112975 C 90.543262,104.06629 99.57578,91.606445 99.57578,76.929009 l 0,-39.095174 c 0,-19.378861 -15.706628,-34.9798936 -35.216654,-34.9798936 z" />
        <path
           inkscape:connector-curvature="0"
           style="opacity:0.8;fill:url(#radialGradient4977);fill-opacity:1;fill-rule:evenodd;stroke:none"
           id="path2861"
           d="m 49.470641,12.003202 c -5.438394,3.405248 -8.498721,9.210129 -7.899513,11.145143 0.645643,2.084956 4.466662,-7.23357 15.283178,-10.119409 8.340567,-2.225256 -4.93e-4,-5.648705 -7.383665,-1.025734 z" />
        <path
           inkscape:connector-curvature="0"
           style="opacity:0.8;fill:url(#radialGradient4974);fill-opacity:1;fill-rule:evenodd;stroke:none"
           id="path2871"
           d="m 79.247611,11.903104 c 5.438394,3.405248 8.49872,9.210129 7.899512,11.145143 -0.645642,2.084956 -4.466662,-7.23357 -15.283178,-10.119409 -8.340567,-2.225257 4.93e-4,-5.648706 7.383666,-1.025734 z" />
        <path
           inkscape:connector-curvature="0"
           style="opacity:0.5;fill:url(#linearGradient4971);fill-opacity:1;fill-rule:evenodd;stroke:none"
           id="rect2875"
           d="m 64.359126,6.2794038 c -18.956795,0 -34.218041,12.9946682 -34.218041,31.9514632 l 0,38.243692 c 0,14.357765 8.77639,26.546231 21.260474,31.639111 C 42.456647,103.96315 36.179563,95.069836 36.179563,84.525863 l 0,-48.307822 c 0,-14.496373 11.670365,-26.18229 26.166737,-26.18229 l 4.025652,0 c 14.496372,0 26.166737,11.685917 26.166737,26.18229 l 0,48.307822 c 0,10.543973 -6.277085,19.437287 -15.221996,23.587807 12.484083,-5.09288 21.260473,-17.281346 21.260473,-31.639111 l 0,-38.243692 c 0,-18.956795 -15.261246,-31.9514632 -34.21804,-31.9514632 z" />
        <path
           inkscape:connector-curvature="0"
           style="opacity:0.8;fill:url(#linearGradient4968);fill-opacity:1;fill-rule:evenodd;stroke:none"
           id="path2933"
           d="m 64.359126,4.0389347 c -26.761714,0 -32.937493,23.3152523 -32.937493,33.8600773 0,31.634478 2.058591,31.634478 2.058591,0 0,-23.198616 16.462644,-32.3548034 30.878902,-32.3548034 14.416258,0 30.878901,10.1025854 30.878901,32.3548034 0,31.634478 2.058592,31.634478 2.058592,0 0,-10.544825 -6.175779,-33.8600773 -32.937493,-33.8600773 z" />
        <path
           inkscape:connector-curvature="0"
           style="opacity:0.6;fill:url(#linearGradient4965);fill-opacity:1;fill-rule:evenodd;stroke:none"
           id="path2885"
           d="m 64.359126,7.091337 c -26.166737,0 -32.205215,22.300136 -32.205215,31.987424 0,29.061863 2.012826,29.061863 2.012826,0 0,-21.312033 16.096639,-30.604564 30.192389,-30.604564 14.095749,0 30.192389,10.161965 30.192389,30.604564 0,29.061863 2.012826,29.061863 2.012826,0 0,-9.687288 -6.038478,-31.987424 -32.205215,-31.987424 z" />
        <path
           inkscape:connector-curvature="0"
           style="opacity:0.8;fill:#ffffff;fill-opacity:1;fill-rule:evenodd;stroke:none"
           id="path2897"
           d="m 36.979617,16.487555 c -2.875247,5.248243 3.027063,1.931127 4.397976,0.273813 C 45.231503,12.102333 51.745249,8.725083 57.462695,7.62284 62.257428,6.6984824 62.988478,4.847127 59.040233,4.5406553 51.168146,3.9296066 39.736027,11.456231 36.979617,16.487555 z" />
        <path
           inkscape:connector-curvature="0"
           style="opacity:0.6;fill:#ffffff;fill-opacity:1;fill-rule:evenodd;stroke:none"
           id="path2901"
           d="m 32.623431,25.155638 c 0.30478,2.564767 5.263491,-5.797802 9.167721,-9.723727 C 46.559495,10.637072 53.787418,7.28111 57.264611,6.8376665 63.463032,6.0471897 60.520985,3.0096623 56.635935,3.7770922 42.515997,6.5662613 31.846251,18.615574 32.623431,25.155638 z" />
        <path
           inkscape:connector-curvature="0"
           style="opacity:0.8;fill:#ffffff;fill-opacity:1;fill-rule:evenodd;stroke:none"
           id="path2909"
           d="M 91.579935,16.451601 C 94.474486,21.689224 88.560004,18.393859 87.183,16.741604 83.311963,12.096789 76.785826,8.743542 71.06436,7.662356 66.266258,6.7556569 64.915924,4.9102192 68.863013,4.5892139 76.732798,3.9491874 88.805023,11.430459 91.579935,16.451601 z" />
        <path
           inkscape:connector-curvature="0"
           style="opacity:0.6;fill:#ffffff;fill-opacity:1;fill-rule:evenodd;stroke:none"
           id="path2911"
           d="M 95.798321,24.924688 C 95.502987,27.490558 90.51352,19.146303 86.594864,15.234779 81.808901,10.457527 74.568672,7.128199 71.089869,6.6975603 64.88858,5.9299082 67.797417,3.002405 71.706633,3.6353351 85.848263,5.9367719 96.551418,18.381806 95.798321,24.924688 z" />
        <path
           inkscape:connector-curvature="0"
           style="opacity:0.4;fill:url(#radialGradient4958);fill-opacity:1;fill-rule:evenodd;stroke:none"
           id="path2953"
           d="m 49.032092,11.138281 c -7.089474,4.048982 -11.078905,10.951227 -10.29778,13.25204 0.841657,2.479099 5.822727,-8.601016 19.923104,-12.0324 10.872738,-2.645922 -6.42e-4,-6.7165466 -9.625324,-1.21964 z" />
        <path
           inkscape:connector-curvature="0"
           style="opacity:0.4;fill:url(#radialGradient4955);fill-opacity:1;fill-rule:evenodd;stroke:none"
           id="path2957"
           d="m 79.540422,10.945305 c 6.540791,4.118107 10.221467,11.138193 9.500794,13.478284 -0.776518,2.521425 -5.372083,-8.747857 -18.381176,-12.237822 -10.031254,-2.691095 5.92e-4,-6.8312141 8.880382,-1.240462 z" />
        <path
           inkscape:connector-curvature="0"
           style="opacity:0.4;fill:url(#radialGradient4952);fill-opacity:1;fill-rule:evenodd;stroke:none"
           id="path3055"
           d="m 120.71826,124.78239 c 0,2.2233 -25.232845,4.02565 -56.359132,4.02565 C 33.232841,128.80804 8,127.00569 8,124.78239 c 0,-2.22331 25.232841,-4.02566 56.359128,-4.02566 31.126287,0 56.359132,1.80235 56.359132,4.02566 l 0,0 z" />
        <path
           inkscape:connector-curvature="0"
           style="opacity:0.4;fill:url(#radialGradient4949);fill-opacity:1;fill-rule:evenodd;stroke:none"
           id="path3065"
           d="m 120.71826,121.76311 c 0,2.77913 -25.232845,5.03207 -56.359132,5.03207 C 33.232841,126.79518 8,124.54224 8,121.76311 c 0,-2.77913 25.232841,-5.03206 56.359128,-5.03206 31.126287,0 56.359132,2.25293 56.359132,5.03206 l 0,0 z" />
        <path
           inkscape:connector-curvature="0"
           style="opacity:0.4;fill:url(#radialGradient4946);fill-opacity:1;fill-rule:evenodd;stroke:none"
           id="path3067"
           d="m 120.71826,122.76956 c 0,2.22331 -25.232845,4.02565 -56.359132,4.02565 C 33.232841,126.79521 8,124.99287 8,122.76956 c 0,-2.22331 25.232841,-4.02565 56.359128,-4.02565 31.126287,0 56.359132,1.80234 56.359132,4.02565 l 0,0 z" />
      </g>
      <g
         id="g4928">
        <rect
           y="57.359127"
           x="24.102608"
           width="80.513039"
           style="fill:url(#linearGradient3151);fill-opacity:1;fill-rule:evenodd;stroke:none"
           ry="0.5"
           rx="0.49999997"
           id="rect1941"
           height="66.259109" />
        <rect
           y="57.359127"
           x="24.102608"
           width="80.513039"
           style="opacity:0.02999998;fill:url(#linearGradient3148);fill-opacity:1;fill-rule:evenodd;stroke:none"
           ry="0.5"
           rx="0.49999997"
           id="rect2709"
           height="66.259109" />
        <rect
           y="57.359127"
           x="24.102608"
           width="80.513039"
           style="opacity:0.02999998;fill:url(#linearGradient3145);fill-opacity:1;fill-rule:evenodd;stroke:none"
           ry="0.5"
           rx="0.49999997"
           id="rect2734"
           height="66.259109" />
        <rect
           y="57.359127"
           x="24.102608"
           width="80.513039"
           style="opacity:0.02999998;fill:url(#linearGradient3142);fill-opacity:1;fill-rule:evenodd;stroke:none"
           ry="0.5"
           rx="0.49999997"
           id="rect2738"
           height="66.259109" />
        <path
           inkscape:connector-curvature="0"
           style="opacity:0.5;fill:#ffffff;fill-opacity:1;fill-rule:evenodd;stroke:none"
           id="path2727"
           d="m 26.61864,57.359126 c 1.81009,2.121649 18.145324,3.786234 38.655408,3.786234 20.228572,0 36.293252,-1.647152 38.483862,-3.727075 -0.0308,-0.0032 -0.0255,-0.05916 -0.0572,-0.05916 l -77.08208,0 z" />
        <g
           transform="matrix(1.719497,0,0,1.981605,4.420926,1.487591)"
           id="g2798">
          <path
             inkscape:connector-curvature="0"
             style="opacity:0.40277776;fill:url(#radialGradient3114);fill-opacity:1;fill-rule:evenodd;stroke:none"
             id="path2778"
             d="m 13.971247,30.766863 c -0.439542,2.629523 -0.930877,19.308865 0.69644,22.88 1.591863,3.493333 1.392882,-16.666667 5.273051,-19.84 3.921167,-3.206861 -5.554944,-5.52 -5.969491,-3.04 z" />
          <path
             inkscape:connector-curvature="0"
             style="opacity:0.3;fill:url(#radialGradient3116);fill-opacity:1;fill-rule:evenodd;stroke:none"
             id="path2790"
             d="m 13.728722,30.941568 c -0.507229,3.069739 -1.074226,22.541421 0.803688,26.710411 1.837,4.078163 1.607375,-19.456885 6.085063,-23.161476 4.524999,-3.743731 -6.410365,-6.44412 -6.888751,-3.548935 z" />
          <path
             inkscape:connector-curvature="0"
             style="opacity:0.2;fill:url(#radialGradient3118);fill-opacity:1;fill-rule:evenodd;stroke:none"
             id="path2794"
             d="m 13.231668,31.092008 c -0.630296,3.448814 -1.33486,25.325012 0.998682,30.008821 2.282701,4.581766 1.997363,-21.859573 7.561451,-26.021636 5.622877,-4.206036 -7.96568,-7.23989 -8.560133,-3.987185 z" />
        </g>
        <g
           transform="matrix(-1.719497,0,0,1.981605,124.2973,1.487605)"
           id="g2803">
          <path
             inkscape:connector-curvature="0"
             style="opacity:0.40277776;fill:url(#radialGradient3120);fill-opacity:1;fill-rule:evenodd;stroke:none"
             id="path2805"
             d="m 13.971247,30.766863 c -0.439542,2.629523 -0.930877,19.308865 0.69644,22.88 1.591863,3.493333 1.392882,-16.666667 5.273051,-19.84 3.921167,-3.206861 -5.554944,-5.52 -5.969491,-3.04 z" />
          <path
             inkscape:connector-curvature="0"
             style="opacity:0.3;fill:url(#radialGradient3122);fill-opacity:1;fill-rule:evenodd;stroke:none"
             id="path2807"
             d="m 13.728722,30.941568 c -0.507229,3.069739 -1.074226,22.541421 0.803688,26.710411 1.837,4.078163 1.607375,-19.456885 6.085063,-23.161476 4.524999,-3.743731 -6.410365,-6.44412 -6.888751,-3.548935 z" />
          <path
             inkscape:connector-curvature="0"
             style="opacity:0.2;fill:url(#radialGradient3124);fill-opacity:1;fill-rule:evenodd;stroke:none"
             id="path2809"
             d="m 13.231668,31.092008 c -0.630296,3.448814 -1.33486,25.325012 0.998682,30.008821 2.282701,4.581766 1.997363,-21.859573 7.561451,-26.021636 5.622877,-4.206036 -7.96568,-7.23989 -8.560133,-3.987185 z" />
        </g>
        <path
           inkscape:connector-curvature="0"
           style="opacity:0.24999994;fill:url(#linearGradient3130);fill-opacity:1;fill-rule:evenodd;stroke:none"
           id="rect3077"
           d="m 103.11564,114.72466 0,7.88716 c 0,0.55755 -0.43214,1.00641 -0.96891,1.00641 l -75.57521,0 c -0.536777,0 -0.968913,-0.44886 -0.968913,-1.00641 l 0,-28.015415 c 0,29.516505 77.513033,-20.878993 77.513033,20.128255 z" />
        <path
           inkscape:connector-curvature="0"
           style="opacity:0.5;fill:#000000;fill-opacity:1;fill-rule:evenodd;stroke:none"
           id="path2768"
           d="m 25.646537,123.61824 c 1.810091,-2.12165 18.14532,-3.78624 38.655404,-3.78624 20.228577,0 36.293259,1.64715 38.483859,3.72708 -0.0308,0.003 -0.0255,0.0592 -0.0572,0.0592 l -77.082083,0 z" />
      </g>
    </g>
    <g
       transform="matrix(0.63129606,0,0,0.63129606,14.667433,19.04418)"
       id="g3840">
      <path
         inkscape:connector-curvature="0"
         d="m 66.75,23.0625 c -2.693533,0.19912 -0.130201,4.234578 -3.59375,4.25 -3.694452,0.01645 -0.577506,-4.590036 -4.25,-4.1875 -3.672494,0.402536 0.391549,4.215789 -3.21875,5 -3.610299,0.78421 -1.491451,-4.376044 -5,-3.21875 -3.508549,1.157294 1.243359,4.044803 -2.125,5.5625 C 45.194141,31.986447 46.191264,26.513528 43,28.375 c -3.191264,1.861472 2.072955,3.690147 -0.90625,5.875 -2.979205,2.184853 -3.140495,-3.390546 -5.875,-0.90625 -2.734506,2.484296 2.772346,3.21223 0.3125,5.96875 -2.459846,2.75652 -3.779264,-2.686044 -5.9375,0.3125 -2.158236,2.998544 3.39548,2.542286 1.5625,5.75 -1.83298,3.207714 -4.262359,-1.787991 -5.75,1.59375 -1.487641,3.381741 3.876003,1.762534 2.75,5.28125 -1.126003,3.518716 -4.560471,-0.898389 -5.3125,2.71875 -0.752029,3.61714 4.151065,0.949067 3.78125,4.625 -0.369815,3.675933 -4.64145,0.0868 -4.625,3.78125 0.01645,3.694452 4.253714,0.04626 4.65625,3.71875 0.402535,3.672494 -4.534211,1.045951 -3.75,4.65625 0.784211,3.610299 4.186456,-0.821049 5.34375,2.6875 1.157294,3.508549 -4.205197,1.944141 -2.6875,5.3125 1.517697,3.368359 3.888528,-1.691264 5.75,1.5 1.861472,3.191264 -3.684853,2.802045 -1.5,5.78125 2.184853,2.979205 3.453204,-2.453256 5.9375,0.28125 2.484296,2.734505 -3.03777,3.477654 -0.28125,5.9375 2.75652,2.459846 2.876456,-3.095736 5.875,-0.9375 2.998544,2.158236 -2.238964,4.04202 0.96875,5.875 3.207714,1.83298 2.180759,-3.643891 5.5625,-2.15625 3.381741,1.487641 -1.362466,4.4365 2.15625,5.5625 3.518716,1.126 1.35161,-4.033279 4.96875,-3.28125 3.617139,0.752029 -0.394683,4.59893 3.28125,4.96875 3.675933,0.36982 0.493048,-4.2023 4.1875,-4.21875 3.694452,-0.01645 0.577506,4.59004 4.25,4.1875 3.672494,-0.40254 -0.391549,-4.215789 3.21875,-5 3.610299,-0.784211 1.491451,4.37604 5,3.21875 3.508549,-1.15729 -1.243359,-4.044803 2.125,-5.5625 3.368359,-1.517697 2.371236,3.955222 5.5625,2.09375 3.191264,-1.861472 -2.072955,-3.690147 0.90625,-5.875 2.979205,-2.184853 3.140495,3.390546 5.875,0.90625 2.734506,-2.484296 -2.772346,-3.21223 -0.3125,-5.96875 2.459846,-2.75652 3.779264,2.686044 5.9375,-0.3125 2.158236,-2.998544 -3.39548,-2.542286 -1.5625,-5.75 1.83298,-3.207714 4.262359,1.787991 5.75,-1.59375 1.48764,-3.381741 -3.876003,-1.762534 -2.75,-5.28125 1.126003,-3.518716 4.56047,0.898389 5.3125,-2.71875 0.75203,-3.61714 -4.151065,-0.949067 -3.78125,-4.625 0.369815,-3.675933 4.64145,-0.0868 4.625,-3.78125 -0.0165,-3.694452 -4.253714,-0.04626 -4.65625,-3.71875 -0.402536,-3.672494 4.53421,-1.045951 3.75,-4.65625 -0.78421,-3.610299 -4.186456,0.821049 -5.34375,-2.6875 -1.157294,-3.508549 4.2052,-1.944141 2.6875,-5.3125 -1.517697,-3.368359 -3.888528,1.691264 -5.75,-1.5 -1.861472,-3.191264 3.684853,-2.802045 1.5,-5.78125 -2.184853,-2.979205 -3.453204,2.453255 -5.9375,-0.28125 -2.484296,-2.734505 3.03777,-3.477654 0.28125,-5.9375 -2.75652,-2.459846 -2.876456,3.095736 -5.875,0.9375 -2.998544,-2.158236 2.238964,-4.04202 -0.96875,-5.875 -3.207714,-1.83298 -2.180759,3.643891 -5.5625,2.15625 -3.381741,-1.487641 1.362466,-4.436497 -2.15625,-5.5625 C 72.075034,23.655247 74.24214,28.814529 70.625,28.0625 67.007861,27.310471 71.019683,23.463565 67.34375,23.09375 67.114004,23.070637 66.929569,23.049225 66.75,23.0625 z M 59.65625,53.5 c 0.833071,0.0047 1.973931,0.0625 3.65625,0.0625 6.729274,0 4.947863,-1.015222 8.3125,4.8125 3.364637,5.827722 3.364637,3.797278 0,9.625 -3.364637,5.827722 -1.583226,4.8125 -8.3125,4.8125 -6.729274,0 -4.947863,1.015222 -8.3125,-4.8125 -3.364637,-5.827722 -3.364637,-3.797278 0,-9.625 2.523478,-4.370792 2.157037,-4.889009 4.65625,-4.875 z"
         id="path3061"
         style="color:#000000;fill:#4d4d4d;fill-opacity:1;fill-rule:nonzero;stroke:#5b5b5b;stroke-width:0.741;stroke-linecap:round;stroke-linejoin:round;stroke-miterlimit:4;stroke-opacity:1;stroke-dasharray:none;marker:none;visibility:visible;display:inline;overflow:visible;enable-background:accumulate" />
      <path
         inkscape:connector-curvature="0"
         d="M 80,63 C 80,71.284271 72.164983,78 62.5,78 52.835017,78 45,71.284271 45,63 45,54.715729 52.835017,48 62.5,48 72.164983,48 80,54.715729 80,63 z"
         transform="matrix(1.1173069,0,0,1.3035246,-6.5191812,-18.941574)"
         id="path3069"
         style="color:#000000;fill:none;stroke:#5b5b5b;stroke-width:0.82861757;stroke-linecap:round;stroke-linejoin:round;stroke-miterlimit:4;stroke-opacity:1;marker:none;visibility:visible;display:inline;overflow:visible;enable-background:accumulate" />
    </g>
  </g>
</svg>
